<svg xmlns="http://www.w3.org/2000/svg" viewBox="0 0 35.72 23.56"><defs><style>.cls-1{fill:#fff;}</style></defs><g id="Layer_2" data-name="Layer 2"><g id="_27" data-name="27"><path class="cls-1" d="M1.49.17,9.18,4.55V1a.93.93,0,0,1,.91-1,1.13,1.13,0,0,1,.58.17L19.6,5.29l9,5.21.25.25V3.39a3.52,3.52,0,0,1,1-2.4,3.68,3.68,0,0,1,2.4-1h.08a3.33,3.33,0,0,1,2.39,1,3.16,3.16,0,0,1,1,2.4V20.17a3.29,3.29,0,0,1-1,2.4,3.33,3.33,0,0,1-2.39,1h-.08a3.38,3.38,0,0,1-3.39-3.39V12a1.65,1.65,0,0,1-.33.25L19.6,17.36h0l-9,5.21a.89.89,0,0,1-1.32-.33,1.06,1.06,0,0,1-.08-.49h0V18.19L1.49,22.57a.87.87,0,0,1-1.32-.33A1.07,1.07,0,0,1,0,21.75H0V1A1,1,0,0,1,1,0a.83.83,0,0,1,.5.17Z"/></g></g></svg>