<svg xmlns="http://www.w3.org/2000/svg" viewBox="0 0 32.56 25.42"><defs><style>.cls-1{fill:#fff;}</style></defs><g id="Layer_2" data-name="Layer 2"><g id="_27" data-name="27"><path class="cls-1" d="M1.74.17,10.25,5v-4A1.05,1.05,0,0,1,11.33,0,1,1,0,0,1,12,.17L21.91,6h0L32,11.74a1.11,1.11,0,0,1,.41,1.49,1,1,0,0,1-.41.41L21.91,19.43v.08L11.82,25.3a1.17,1.17,0,0,1-1.48-.41,1.33,1.33,0,0,1-.09-.58h0v-4l-8.6,5a1.19,1.19,0,0,1-1.49-.41A1.87,1.87,0,0,1,0,24.31H0V1.08A1.05,1.05,0,0,1,1.08,0a.88.88,0,0,1,.66.17Z"/></g></g></svg>