<svg xmlns="http://www.w3.org/2000/svg" viewBox="0 0 22.9 35.96"><defs><style>.cls-1{fill:#fff;}</style></defs><g id="Layer_2" data-name="Layer 2"><g id="_27" data-name="27"><path class="cls-1" d="M17.61,0h.08a5.54,5.54,0,0,1,3.72,1.49A5.38,5.38,0,0,1,22.9,5.21V30.76a5.4,5.4,0,0,1-1.49,3.72A5.53,5.53,0,0,1,17.69,36h-.08a5.38,5.38,0,0,1-3.72-1.48,5.4,5.4,0,0,1-1.49-3.72V5.21a5.38,5.38,0,0,1,1.49-3.72A5.38,5.38,0,0,1,17.61,0Z"/><path class="cls-1" d="M5.21,0h.08A5.38,5.38,0,0,1,9,1.49,5.38,5.38,0,0,1,10.5,5.21V30.76A5.4,5.4,0,0,1,9,34.48,5.38,5.38,0,0,1,5.29,36H5.21a5.53,5.53,0,0,1-3.72-1.48A5.4,5.4,0,0,1,0,30.76V5.21A5.38,5.38,0,0,1,1.49,1.49,5.54,5.54,0,0,1,5.21,0Z"/></g></g></svg>