<svg xmlns="http://www.w3.org/2000/svg" viewBox="0 0 42 44.73"><defs><style>.cls-1{fill:#fff;fill-rule:evenodd;}</style></defs><g id="Layer_2" data-name="Layer 2"><g id="_27" data-name="27"><path class="cls-1" d="M42,23.15C42,10.42,32.58,0,21,0S0,10.42,0,23.15A24,24,0,0,0,2.81,34.56h.33v5.21a4.81,4.81,0,0,0,4.63,5,4.81,4.81,0,0,0,4.63-5V29.84a4.84,4.84,0,0,0-4.63-5,4.58,4.58,0,0,0-4.13,2.82,19.51,19.51,0,0,1-.5-4.47c0-10.83,8-19.68,17.86-19.68s17.86,8.85,17.86,19.68a24.19,24.19,0,0,1-.5,4.3,4.64,4.64,0,0,0-4-2.65,4.84,4.84,0,0,0-4.63,5v9.93a4.81,4.81,0,0,0,4.63,5,4.8,4.8,0,0,0,4.63-5V34.56h.25A25,25,0,0,0,42,23.15Z"/></g></g></svg>