<svg xmlns="http://www.w3.org/2000/svg" viewBox="0 0 33.65 29.35"><defs><style>.cls-1{fill:#fff;}</style></defs><g id="Layer_2" data-name="Layer 2"><g id="_27" data-name="27"><path class="cls-1" d="M29.35,0h.08a3.92,3.92,0,0,1,3,1.24,4,4,0,0,1,1.24,3V25.13a4.23,4.23,0,0,1-4.22,4.22h-.08a4,4,0,0,1-3-1.24,4,4,0,0,1-1.32-3V4.21a4,4,0,0,1,1.32-3,3.93,3.93,0,0,1,3-1.24Z"/><path class="cls-1" d="M1.9.17,13,6.61h0l11.24,6.45a1.36,1.36,0,0,1,.5,1.74,2.05,2.05,0,0,1-.5.41L13,21.66v.08L1.82,28.19A1.23,1.23,0,0,1,.17,27.7.69.69,0,0,1,0,27.12H0v-26A1.14,1.14,0,0,1,1.16,0,2.26,2.26,0,0,1,1.9.17Z"/></g></g></svg>