<svg xmlns="http://www.w3.org/2000/svg" viewBox="0 0 33.98 29.68"><defs><style>.cls-1{fill:#fff;}</style></defs><g id="Layer_2" data-name="Layer 2"><g id="_27" data-name="27"><path class="cls-1" d="M4.38,0H4.3A4.33,4.33,0,0,0,1.24,1.24,4.61,4.61,0,0,0,0,4.29V25.38a4.64,4.64,0,0,0,1.24,3.06A4.33,4.33,0,0,0,4.3,29.68h.08a4.29,4.29,0,0,0,3-1.24,4.36,4.36,0,0,0,1.32-3.06V4.29a4.33,4.33,0,0,0-1.32-3A4.29,4.29,0,0,0,4.38,0Z"/><path class="cls-1" d="M32.08.25,20.84,6.69h0L9.51,13.23A1.3,1.3,0,0,0,9,15a2.32,2.32,0,0,0,.5.42l11.33,6.53.08.08,11.24,6.45A1.22,1.22,0,0,0,33.82,28a.82.82,0,0,0,.16-.58h0V1.24A1.2,1.2,0,0,0,32.82,0a1,1,0,0,0-.74.25Z"/></g></g></svg>