<svg xmlns="http://www.w3.org/2000/svg" viewBox="0 0 35.81 28.01"><defs><style>.cls-1{fill:#fff;}</style></defs><g id="Layer_2" data-name="Layer 2"><g id="_27" data-name="27"><path class="cls-1" d="M33.9.25,24.56,5.62V1.24A1.21,1.21,0,0,0,23.4,0a1.12,1.12,0,0,0-.74.25l-11,6.36h0L.58,13a1.21,1.21,0,0,0-.41,1.66,1,1,0,0,0,.41.41l11.08,6.36.08.09,11,6.36a1.23,1.23,0,0,0,1.65-.49,1.13,1.13,0,0,0,.17-.58h0V22.41L34,27.86a1.26,1.26,0,0,0,1.83-1.07h0V1.24A1.28,1.28,0,0,0,34.56,0a.92.92,0,0,0-.66.25Z"/></g></g></svg>